<svg xmlns="http://www.w3.org/2000/svg" width="612" height="792"><path fill="#FFF" d="M9.562 396C9.562 232.282 142.282 99.562 306 99.562c163.719 0 296.438 132.719 296.438 296.438S469.719 692.438 306 692.438C142.282 692.438 9.562 559.719 9.562 396zm86.607 150.451C143.027 611.689 219.547 654.188 306 654.188s162.973-42.498 209.831-107.736c-3.755-32.261-27.094-59.345-59.213-67.375l-38.697-9.673C386.762 496.155 347.504 510.75 306 510.75c-41.503 0-80.761-14.595-111.922-41.347l-38.697 9.673c-32.118 8.03-55.458 35.114-59.212 67.375zm75.956-207.826c0 73.938 59.938 133.875 133.875 133.875s133.875-59.938 133.875-133.875S379.938 204.75 306 204.75c-73.937 0-133.875 59.938-133.875 133.875z"/></svg>
	C143.027,611.689,219.547,654.188,306,654.188s162.973-42.498,209.831-107.736c-3.755-32.261-27.094-59.345-59.213-67.375
	l-38.697-9.673C386.762,496.155,347.504,510.75,306,510.75c-41.503,0-80.761-14.595-111.922-41.347l-38.697,9.673
	C123.263,487.106,99.923,514.19,96.169,546.451z M172.125,338.625c0,73.938,59.938,133.875,133.875,133.875
	s133.875-59.938,133.875-133.875S379.938,204.75,306,204.75C232.063,204.75,172.125,264.688,172.125,338.625z"/>
</svg>
